<?xml version="1.0" standalone="no"?>
<!DOCTYPE svg PUBLIC "-//W3C//DTD SVG 1.1//EN"
"http://www.w3.org/Graphics/SVG/1.1/DTD/svg11.dtd">

<svg width="566" height="550" view_box="0 0 566 550"
xmlns="http://www.w3.org/2000/svg"
xmlns:link="http://www.w3.org/1999/xlink">\n\n<desc>Généré par Mocodo 2.3.7 le Mon, 14 Jun 2021 02:07:31</desc>

<rect id="frame" x="0" y="0" width="566" height="550" fill="#ffffbf" stroke="none" stroke-width="0"/>

<!-- Association own -->
<line x1="168" y1="262" x2="49" y2="262" stroke="#66bd63" stroke-width="2"/>
<text x="99" y="279.0" fill="#d73027" font-family="Verdana" font-size="12">0,N</text>
<line x1="49" y1="465" x2="49" y2="262" stroke="#66bd63" stroke-width="2"/>
<text x="54.0" y="389" fill="#d73027" font-family="Verdana" font-size="12">1,1</text>
<g id="association-own">
	<path d="M 55 237 a 14 14 90 0 1 14 14 V 262 h -40 V 251 a 14 14 90 0 1 14 -14" fill="#a6d96a" stroke="#a6d96a" stroke-width="0"/>
	<path d="M 69 262.0 v 11 a 14 14 90 0 1 -14 14 H 43 a 14 14 90 0 1 -14 -14 V 262.0 H 40" fill="#d9ef8b" stroke="#d9ef8b" stroke-width="0"/>
	<rect x="29" y="237" width="40" height="50" fill="none" rx="14" stroke="#66bd63" stroke-width="2"/>
	<line x1="29" y1="262" x2="69" y2="262" stroke="#66bd63" stroke-width="1"/>
	<text x="36" y="254.7" fill="#000000" font-family="Verdana" font-size="12">own</text>
</g>

<!-- Association like -->
<line x1="287" y1="465" x2="401" y2="262" stroke="#66bd63" stroke-width="2"/>
<text x="332" y="406.403961715" fill="#d73027" font-family="Verdana" font-size="12">0,N</text>
<line x1="401" y1="85" x2="401" y2="262" stroke="#66bd63" stroke-width="2"/>
<text x="406.0" y="178" fill="#d73027" font-family="Verdana" font-size="12">1,1</text>
<g id="association-like">
	<path d="M 405 237 a 14 14 90 0 1 14 14 V 262 h -36 V 251 a 14 14 90 0 1 14 -14" fill="#a6d96a" stroke="#a6d96a" stroke-width="0"/>
	<path d="M 419 262.0 v 11 a 14 14 90 0 1 -14 14 H 397 a 14 14 90 0 1 -14 -14 V 262.0 H 36" fill="#d9ef8b" stroke="#d9ef8b" stroke-width="0"/>
	<rect x="383" y="237" width="36" height="50" fill="none" rx="14" stroke="#66bd63" stroke-width="2"/>
	<line x1="383" y1="262" x2="419" y2="262" stroke="#66bd63" stroke-width="1"/>
	<text x="390" y="254.7" fill="#000000" font-family="Verdana" font-size="12">like</text>
</g>

<!-- Association ingredients -->
<line x1="516" y1="465" x2="401" y2="465" stroke="#66bd63" stroke-width="2"/>
<text x="448" y="482.0" fill="#d73027" font-family="Verdana" font-size="12">1,N</text>
<line x1="287" y1="465" x2="401" y2="465" stroke="#66bd63" stroke-width="2"/>
<text x="332" y="482.0" fill="#d73027" font-family="Verdana" font-size="12">1,N</text>
<g id="association-ingredients">
	<path d="M 429 414 a 14 14 90 0 1 14 14 V 439 h -84 V 428 a 14 14 90 0 1 14 -14" fill="#a6d96a" stroke="#a6d96a" stroke-width="0"/>
	<path d="M 443 439.0 v 63 a 14 14 90 0 1 -14 14 H 373 a 14 14 90 0 1 -14 -14 V 439.0 H 84" fill="#d9ef8b" stroke="#d9ef8b" stroke-width="0"/>
	<rect x="359" y="414" width="84" height="102" fill="none" rx="14" stroke="#66bd63" stroke-width="2"/>
	<line x1="359" y1="439" x2="443" y2="439" stroke="#66bd63" stroke-width="1"/>
	<text x="367" y="431.7" fill="#000000" font-family="Verdana" font-size="12">ingredients</text>
	<text x="366" y="456.7" fill="#000000" font-family="Verdana" font-size="12">product_id</text>
	<text x="366" y="473.8" fill="#000000" font-family="Verdana" font-size="12">dish_id</text>
	<text x="366" y="490.8" fill="#000000" font-family="Verdana" font-size="12">created_at</text>
	<text x="366" y="507.8" fill="#000000" font-family="Verdana" font-size="12">updated_at</text>
</g>

<!-- Association order_details -->
<line x1="287" y1="465" x2="168" y2="465" stroke="#66bd63" stroke-width="2"/>
<text x="220" y="482.0" fill="#d73027" font-family="Verdana" font-size="12">0,N</text>
<line x1="49" y1="465" x2="168" y2="465" stroke="#66bd63" stroke-width="2"/>
<text x="94" y="482.0" fill="#d73027" font-family="Verdana" font-size="12">1,N</text>
<g id="association-order_details">
	<path d="M 201 414 a 14 14 90 0 1 14 14 V 439 h -94 V 428 a 14 14 90 0 1 14 -14" fill="#a6d96a" stroke="#a6d96a" stroke-width="0"/>
	<path d="M 215 439.0 v 63 a 14 14 90 0 1 -14 14 H 135 a 14 14 90 0 1 -14 -14 V 439.0 H 94" fill="#d9ef8b" stroke="#d9ef8b" stroke-width="0"/>
	<rect x="121" y="414" width="94" height="102" fill="none" rx="14" stroke="#66bd63" stroke-width="2"/>
	<line x1="121" y1="439" x2="215" y2="439" stroke="#66bd63" stroke-width="1"/>
	<text x="128" y="431.7" fill="#000000" font-family="Verdana" font-size="12">order_details</text>
	<text x="128" y="456.7" fill="#000000" font-family="Verdana" font-size="12">dish_id</text>
	<text x="128" y="473.8" fill="#000000" font-family="Verdana" font-size="12">order_id</text>
	<text x="128" y="490.8" fill="#000000" font-family="Verdana" font-size="12">created_at</text>
	<text x="128" y="507.8" fill="#000000" font-family="Verdana" font-size="12">updated_at</text>
</g>

<!-- Association cart -->
<line x1="168" y1="262" x2="287" y2="262" stroke="#66bd63" stroke-width="2"/>
<text x="215" y="279.0" fill="#d73027" font-family="Verdana" font-size="12">0,N</text>
<line x1="287" y1="465" x2="287" y2="262" stroke="#66bd63" stroke-width="2"/>
<text x="260.0" y="381" fill="#d73027" font-family="Verdana" font-size="12">0,N</text>
<g id="association-cart">
	<path d="M 315 211 a 14 14 90 0 1 14 14 V 236 h -84 V 225 a 14 14 90 0 1 14 -14" fill="#a6d96a" stroke="#a6d96a" stroke-width="0"/>
	<path d="M 329 236.0 v 63 a 14 14 90 0 1 -14 14 H 259 a 14 14 90 0 1 -14 -14 V 236.0 H 84" fill="#d9ef8b" stroke="#d9ef8b" stroke-width="0"/>
	<rect x="245" y="211" width="84" height="102" fill="none" rx="14" stroke="#66bd63" stroke-width="2"/>
	<line x1="245" y1="236" x2="329" y2="236" stroke="#66bd63" stroke-width="1"/>
	<text x="275" y="228.7" fill="#000000" font-family="Verdana" font-size="12">cart</text>
	<text x="252" y="253.7" fill="#000000" font-family="Verdana" font-size="12">user_id</text>
	<text x="252" y="270.8" fill="#000000" font-family="Verdana" font-size="12">dish_id</text>
	<text x="252" y="287.8" fill="#000000" font-family="Verdana" font-size="12">created_at</text>
	<text x="252" y="304.8" fill="#000000" font-family="Verdana" font-size="12">updated_at</text>
</g>

<!-- Association leave -->
<line x1="168" y1="262" x2="287" y2="85" stroke="#66bd63" stroke-width="2"/>
<text x="215" y="211.381285921" fill="#d73027" font-family="Verdana" font-size="12">0,N</text>
<line x1="401" y1="85" x2="287" y2="85" stroke="#66bd63" stroke-width="2"/>
<text x="335" y="102.0" fill="#d73027" font-family="Verdana" font-size="12">1,1</text>
<g id="association-leave">
	<path d="M 297 60 a 14 14 90 0 1 14 14 V 85 h -48 V 74 a 14 14 90 0 1 14 -14" fill="#a6d96a" stroke="#a6d96a" stroke-width="0"/>
	<path d="M 311 85.0 v 11 a 14 14 90 0 1 -14 14 H 277 a 14 14 90 0 1 -14 -14 V 85.0 H 48" fill="#d9ef8b" stroke="#d9ef8b" stroke-width="0"/>
	<rect x="263" y="60" width="48" height="50" fill="none" rx="14" stroke="#66bd63" stroke-width="2"/>
	<line x1="263" y1="85" x2="311" y2="85" stroke="#66bd63" stroke-width="1"/>
	<text x="270" y="77.7" fill="#000000" font-family="Verdana" font-size="12">leave</text>
</g>

<!-- Association have -->
<line x1="168" y1="262" x2="168" y2="85" stroke="#66bd63" stroke-width="2"/>
<text x="141.0" y="127" fill="#d73027" font-family="Verdana" font-size="12">0,N</text>
<line x1="49" y1="85" x2="168" y2="85" stroke="#66bd63" stroke-width="2"/>
<text x="94" y="102.0" fill="#d73027" font-family="Verdana" font-size="12">1,1</text>
<g id="association-have">
	<path d="M 176 60 a 14 14 90 0 1 14 14 V 85 h -44 V 74 a 14 14 90 0 1 14 -14" fill="#a6d96a" stroke="#a6d96a" stroke-width="0"/>
	<path d="M 190 85.0 v 11 a 14 14 90 0 1 -14 14 H 160 a 14 14 90 0 1 -14 -14 V 85.0 H 44" fill="#d9ef8b" stroke="#d9ef8b" stroke-width="0"/>
	<rect x="146" y="60" width="44" height="50" fill="none" rx="14" stroke="#66bd63" stroke-width="2"/>
	<line x1="146" y1="85" x2="190" y2="85" stroke="#66bd63" stroke-width="1"/>
	<text x="153" y="77.7" fill="#000000" font-family="Verdana" font-size="12">have</text>
</g>

<!-- Association categorize -->
<line x1="516" y1="465" x2="516" y2="262" stroke="#66bd63" stroke-width="2"/>
<text x="521.0" y="381" fill="#d73027" font-family="Verdana" font-size="12">1,1</text>
<line x1="516" y1="85" x2="516" y2="262" stroke="#66bd63" stroke-width="2"/>
<text x="521.0" y="153" fill="#d73027" font-family="Verdana" font-size="12">0,N</text>
<g id="association-categorize">
	<path d="M 541 237 a 14 14 90 0 1 14 14 V 262 h -78 V 251 a 14 14 90 0 1 14 -14" fill="#a6d96a" stroke="#a6d96a" stroke-width="0"/>
	<path d="M 555 262.0 v 11 a 14 14 90 0 1 -14 14 H 491 a 14 14 90 0 1 -14 -14 V 262.0 H 78" fill="#d9ef8b" stroke="#d9ef8b" stroke-width="0"/>
	<rect x="477" y="237" width="78" height="50" fill="none" rx="14" stroke="#66bd63" stroke-width="2"/>
	<line x1="477" y1="262" x2="555" y2="262" stroke="#66bd63" stroke-width="1"/>
	<text x="484" y="254.7" fill="#000000" font-family="Verdana" font-size="12">categorize</text>
</g>

<!-- Entity users -->
<g id="entity-users">
	<g id="frame-users">
		<rect x="126" y="135" width="84" height="25" fill="#fdae61" stroke="#fdae61" stroke-width="0"/>
		<rect x="126" y="160.0" width="84" height="229" fill="#fee08b" stroke="#fee08b" stroke-width="0"/>
		<rect x="126" y="135" width="84" height="254" fill="none" stroke="#f46d43" stroke-width="2"/>
		<line x1="126" y1="160" x2="210" y2="160" stroke="#f46d43" stroke-width="1"/>
	</g>
	<text x="151" y="152.7" fill="#000000" font-family="Verdana" font-size="12">users</text>
	<text x="131" y="177.7" fill="#000000" font-family="Verdana" font-size="12">id</text>
	<line x1="131" y1="180" x2="143" y2="180" stroke="#000000" stroke-width="1"/>
	<text x="131" y="194.7" fill="#000000" font-family="Verdana" font-size="12">first_name</text>
	<text x="131" y="211.7" fill="#000000" font-family="Verdana" font-size="12">last_name</text>
	<text x="131" y="228.7" fill="#000000" font-family="Verdana" font-size="12">phone</text>
	<text x="131" y="245.7" fill="#000000" font-family="Verdana" font-size="12">address</text>
	<text x="131" y="262.8" fill="#000000" font-family="Verdana" font-size="12">city</text>
	<text x="131" y="279.8" fill="#000000" font-family="Verdana" font-size="12">country</text>
	<text x="131" y="296.8" fill="#000000" font-family="Verdana" font-size="12">postal_code</text>
	<text x="131" y="313.8" fill="#000000" font-family="Verdana" font-size="12">email</text>
	<text x="131" y="330.8" fill="#000000" font-family="Verdana" font-size="12">password</text>
	<text x="131" y="347.8" fill="#000000" font-family="Verdana" font-size="12">is_admin</text>
	<text x="131" y="364.8" fill="#000000" font-family="Verdana" font-size="12">created_at</text>
	<text x="131" y="381.8" fill="#000000" font-family="Verdana" font-size="12">updated_at</text>
</g>

<!-- Entity dishes -->
<g id="entity-dishes">
	<g id="frame-dishes">
		<rect x="247" y="389" width="80" height="25" fill="#fdae61" stroke="#fdae61" stroke-width="0"/>
		<rect x="247" y="414.0" width="80" height="127" fill="#fee08b" stroke="#fee08b" stroke-width="0"/>
		<rect x="247" y="389" width="80" height="152" fill="none" stroke="#f46d43" stroke-width="2"/>
		<line x1="247" y1="414" x2="327" y2="414" stroke="#f46d43" stroke-width="1"/>
	</g>
	<text x="267" y="406.7" fill="#000000" font-family="Verdana" font-size="12">dishes</text>
	<text x="252" y="431.7" fill="#000000" font-family="Verdana" font-size="12">id</text>
	<line x1="252" y1="434" x2="264" y2="434" stroke="#000000" stroke-width="1"/>
	<text x="252" y="448.7" fill="#000000" font-family="Verdana" font-size="12">name</text>
	<text x="252" y="465.8" fill="#000000" font-family="Verdana" font-size="12">size</text>
	<text x="252" y="482.8" fill="#000000" font-family="Verdana" font-size="12">description</text>
	<text x="252" y="499.8" fill="#000000" font-family="Verdana" font-size="12">price</text>
	<text x="252" y="516.8" fill="#000000" font-family="Verdana" font-size="12">created_at</text>
	<text x="252" y="533.8" fill="#000000" font-family="Verdana" font-size="12">updated_at</text>
</g>

<!-- Entity reviews -->
<g id="entity-reviews">
	<g id="frame-reviews">
		<rect x="361" y="9" width="80" height="25" fill="#fdae61" stroke="#fdae61" stroke-width="0"/>
		<rect x="361" y="34.0" width="80" height="127" fill="#fee08b" stroke="#fee08b" stroke-width="0"/>
		<rect x="361" y="9" width="80" height="152" fill="none" stroke="#f46d43" stroke-width="2"/>
		<line x1="361" y1="34" x2="441" y2="34" stroke="#f46d43" stroke-width="1"/>
	</g>
	<text x="377" y="26.7" fill="#000000" font-family="Verdana" font-size="12">reviews</text>
	<text x="366" y="51.7" fill="#000000" font-family="Verdana" font-size="12">id</text>
	<line x1="366" y1="54" x2="378" y2="54" stroke="#000000" stroke-width="1"/>
	<text x="366" y="68.7" fill="#000000" font-family="Verdana" font-size="12">content</text>
	<text x="366" y="85.8" fill="#000000" font-family="Verdana" font-size="12">note</text>
	<text x="366" y="102.8" fill="#000000" font-family="Verdana" font-size="12">user_id</text>
	<text x="366" y="119.8" fill="#000000" font-family="Verdana" font-size="12">dish_id</text>
	<text x="366" y="136.8" fill="#000000" font-family="Verdana" font-size="12">created_at</text>
	<text x="366" y="153.8" fill="#000000" font-family="Verdana" font-size="12">updated_at</text>
</g>

<!-- Entity products -->
<g id="entity-products">
	<g id="frame-products">
		<rect x="475" y="389" width="82" height="25" fill="#fdae61" stroke="#fdae61" stroke-width="0"/>
		<rect x="475" y="414.0" width="82" height="127" fill="#fee08b" stroke="#fee08b" stroke-width="0"/>
		<rect x="475" y="389" width="82" height="152" fill="none" stroke="#f46d43" stroke-width="2"/>
		<line x1="475" y1="414" x2="557" y2="414" stroke="#f46d43" stroke-width="1"/>
	</g>
	<text x="489" y="406.7" fill="#000000" font-family="Verdana" font-size="12">products</text>
	<text x="480" y="431.7" fill="#000000" font-family="Verdana" font-size="12">id</text>
	<line x1="480" y1="434" x2="492" y2="434" stroke="#000000" stroke-width="1"/>
	<text x="480" y="448.7" fill="#000000" font-family="Verdana" font-size="12">name</text>
	<text x="480" y="465.8" fill="#000000" font-family="Verdana" font-size="12">quantity</text>
	<text x="480" y="482.8" fill="#000000" font-family="Verdana" font-size="12">price</text>
	<text x="480" y="499.8" fill="#000000" font-family="Verdana" font-size="12">category_id</text>
	<text x="480" y="516.8" fill="#000000" font-family="Verdana" font-size="12">created_at</text>
	<text x="480" y="533.8" fill="#000000" font-family="Verdana" font-size="12">updated_at</text>
</g>

<!-- Entity payments -->
<g id="entity-payments">
	<g id="frame-payments">
		<rect x="9" y="26" width="80" height="25" fill="#fdae61" stroke="#fdae61" stroke-width="0"/>
		<rect x="9" y="51.0" width="80" height="93" fill="#fee08b" stroke="#fee08b" stroke-width="0"/>
		<rect x="9" y="26" width="80" height="118" fill="none" stroke="#f46d43" stroke-width="2"/>
		<line x1="9" y1="51" x2="89" y2="51" stroke="#f46d43" stroke-width="1"/>
	</g>
	<text x="19" y="43.7" fill="#000000" font-family="Verdana" font-size="12">payments</text>
	<text x="14" y="68.7" fill="#000000" font-family="Verdana" font-size="12">id</text>
	<line x1="14" y1="71" x2="26" y2="71" stroke="#000000" stroke-width="1"/>
	<text x="14" y="85.8" fill="#000000" font-family="Verdana" font-size="12">amount</text>
	<text x="14" y="102.8" fill="#000000" font-family="Verdana" font-size="12">user_id</text>
	<text x="14" y="119.8" fill="#000000" font-family="Verdana" font-size="12">created_at</text>
	<text x="14" y="136.8" fill="#000000" font-family="Verdana" font-size="12">updated_at</text>
</g>

<!-- Entity orders -->
<g id="entity-orders">
	<g id="frame-orders">
		<rect x="9" y="397" width="80" height="25" fill="#fdae61" stroke="#fdae61" stroke-width="0"/>
		<rect x="9" y="422.0" width="80" height="111" fill="#fee08b" stroke="#fee08b" stroke-width="0"/>
		<rect x="9" y="397" width="80" height="136" fill="none" stroke="#f46d43" stroke-width="2"/>
		<line x1="9" y1="422" x2="89" y2="422" stroke="#f46d43" stroke-width="1"/>
	</g>
	<text x="29" y="414.7" fill="#000000" font-family="Verdana" font-size="12">orders</text>
	<text x="14" y="439.7" fill="#000000" font-family="Verdana" font-size="12">id</text>
	<line x1="14" y1="442" x2="26" y2="442" stroke="#000000" stroke-width="1"/>
	<text x="14" y="456.7" fill="#000000" font-family="Verdana" font-size="12">status</text>
	<text x="14" y="473.8" fill="#000000" font-family="Verdana" font-size="12">method</text>
	<text x="14" y="490.8" fill="#000000" font-family="Verdana" font-size="12">user_id</text>
	<text x="14" y="507.8" fill="#000000" font-family="Verdana" font-size="12">created_at</text>
	<text x="14" y="524.8" fill="#000000" font-family="Verdana" font-size="12">updated_at</text>
</g>

<!-- Entity categories -->
<g id="entity-categories">
	<g id="frame-categories">
		<rect x="476" y="34" width="80" height="25" fill="#fdae61" stroke="#fdae61" stroke-width="0"/>
		<rect x="476" y="59.0" width="80" height="77" fill="#fee08b" stroke="#fee08b" stroke-width="0"/>
		<rect x="476" y="34" width="80" height="102" fill="none" stroke="#f46d43" stroke-width="2"/>
		<line x1="476" y1="59" x2="556" y2="59" stroke="#f46d43" stroke-width="1"/>
	</g>
	<text x="484" y="51.7" fill="#000000" font-family="Verdana" font-size="12">categories</text>
	<text x="481" y="76.7" fill="#000000" font-family="Verdana" font-size="12">id</text>
	<line x1="481" y1="79" x2="493" y2="79" stroke="#000000" stroke-width="1"/>
	<text x="481" y="93.8" fill="#000000" font-family="Verdana" font-size="12">name</text>
	<text x="481" y="110.8" fill="#000000" font-family="Verdana" font-size="12">created_at</text>
	<text x="481" y="127.8" fill="#000000" font-family="Verdana" font-size="12">updated_at</text>
</g>
</svg>